<svg width="1582" height="485" viewBox="0 0 1582 485" fill="none" xmlns="http://www.w3.org/2000/svg">
<path d="M347.336 155.099L348.028 141.116L347.336 155.099C347.56 155.11 347.784 155.124 348.01 155.141L348.357 155.168L348.704 155.176C353.538 155.301 358.017 156.825 362.013 159.648L362.225 159.797L362.441 159.939C362.497 159.975 362.552 160.011 362.607 160.048L362.608 160.048C367.42 163.243 373.255 163.936 378.392 162.381C383.713 160.771 388.883 156.474 390.604 149.659C403.523 98.4879 377.391 44.2262 327.207 23.3369C272.015 0.362379 208.648 26.4804 185.673 81.6732L95.85 297.459C80.8767 333.43 97.8987 374.728 133.87 389.702C169.841 404.675 211.139 387.653 226.112 351.682L316.418 134.736C323.124 118.628 315.501 100.133 299.392 93.4282C283.284 86.7229 264.79 94.3456 258.085 110.454L167.779 327.4C166.216 331.154 161.906 332.931 158.152 331.368C154.398 329.805 152.621 325.495 154.184 321.741L244.007 105.955C253.571 82.9793 279.949 72.1067 302.925 81.6707C323.216 90.1167 334.086 111.699 329.736 132.454C327.275 144.197 336.34 154.555 347.336 155.099ZM245.827 392.661L245.826 392.66C245.077 391.854 244.422 391.023 243.848 390.174C238.115 381.691 225.102 378.356 215.952 386.468C192.928 406.88 159.434 413.571 129.177 400.976C86.9788 383.411 67.0102 334.964 84.5754 292.766L174.881 75.8199C181.587 59.7115 173.964 41.2173 157.855 34.512C141.747 27.8067 123.253 35.4295 116.548 51.5379L26.2417 268.484C-4.73414 342.898 30.4799 428.334 104.895 459.31C160.709 482.543 222.693 468.531 263.257 428.734C268.875 423.222 269.54 415.748 267.619 410.098C265.77 404.658 261.296 399.874 255.018 398.061C251.644 397.088 248.592 395.432 245.98 392.82L245.98 392.82L245.902 392.742L245.827 392.661Z" fill="#030679" stroke="white" stroke-width="28" stroke-linecap="round"/>
<mask id="path-2-outside-1_1_57" maskUnits="userSpaceOnUse" x="225.969" y="129.389" width="805" height="286" fill="black">
<rect fill="white" x="225.969" y="129.389" width="805" height="286"/>
<path d="M446.874 366C447.965 368.836 448.511 371.453 448.511 373.853C448.511 379.524 446.656 384.214 442.948 387.923C439.24 391.413 434.986 393.158 430.187 393.158C426.26 393.158 422.661 391.958 419.389 389.559C416.335 387.159 413.936 383.887 412.191 379.743L395.176 340.151H297.668L280.653 380.07C279.126 384.214 276.727 387.487 273.455 389.886C270.401 392.067 267.02 393.158 263.311 393.158C257.64 393.158 253.277 391.631 250.223 388.577C247.387 385.523 245.969 381.379 245.969 376.143C245.969 374.18 246.296 372.108 246.951 369.926L328.425 174.256C330.171 169.894 332.788 166.513 336.278 164.113C339.769 161.714 343.695 160.732 348.058 161.168C351.984 161.168 355.584 162.368 358.856 164.767C362.346 166.949 364.855 170.112 366.382 174.256L446.874 366ZM379.143 302.522L346.095 225.955L313.701 302.522H379.143Z"/>
<path d="M563.58 213.194C578.632 213.194 592.265 217.121 604.481 224.974C616.697 232.608 626.295 243.297 633.275 257.04C640.474 270.783 644.073 286.38 644.073 303.831C644.073 321.282 640.583 336.988 633.602 350.948C626.622 364.691 617.024 375.489 604.808 383.342C592.811 390.977 579.504 394.794 564.889 394.794C554.418 394.794 544.493 392.722 535.113 388.577C525.951 384.214 518.316 378.979 512.209 372.871V374.835C512.209 380.506 510.354 385.305 506.646 389.232C502.938 392.94 498.248 394.794 492.576 394.794C486.905 394.794 482.215 392.94 478.506 389.232C474.798 385.523 472.944 380.724 472.944 374.835V169.348C472.944 163.677 474.798 158.987 478.506 155.278C482.215 151.352 486.905 149.389 492.576 149.389C498.248 149.389 502.938 151.352 506.646 155.278C510.354 158.987 512.209 163.677 512.209 169.348V237.735C517.444 231.191 524.751 225.519 534.131 220.72C543.511 215.703 553.328 213.194 563.58 213.194ZM558.672 358.801C572.633 358.801 584.085 353.566 593.029 343.095C601.972 332.625 606.444 319.536 606.444 303.831C606.444 288.125 601.972 275.145 593.029 264.893C584.303 254.422 572.851 249.187 558.672 249.187C544.493 249.187 532.932 254.422 523.988 264.893C515.044 275.145 510.573 288.125 510.573 303.831C510.573 319.536 515.044 332.625 523.988 343.095C532.932 353.566 544.493 358.801 558.672 358.801Z"/>
<path d="M767.773 213.194C774.317 213.194 779.77 215.048 784.133 218.757C788.714 222.465 791.004 226.828 791.004 231.845C791.004 238.607 789.259 243.733 785.769 247.224C782.279 250.496 778.134 252.132 773.335 252.132C770.063 252.132 766.355 251.368 762.21 249.841C761.556 249.623 760.029 249.187 757.629 248.533C755.448 247.878 753.048 247.551 750.431 247.551C744.759 247.551 739.306 249.296 734.07 252.786C728.835 256.276 724.472 261.621 720.982 268.819C717.71 275.8 716.074 284.198 716.074 294.014V371.562C716.074 377.234 714.22 382.033 710.511 385.96C706.803 389.668 702.113 391.522 696.442 391.522C690.77 391.522 686.08 389.668 682.372 385.96C678.663 382.033 676.809 377.234 676.809 371.562V236.426C676.809 230.754 678.663 226.064 682.372 222.356C686.08 218.429 690.77 216.466 696.442 216.466C702.113 216.466 706.803 218.429 710.511 222.356C714.22 226.064 716.074 230.754 716.074 236.426V240.68C721.091 231.736 728.29 224.974 737.67 220.393C747.05 215.594 757.084 213.194 767.773 213.194Z"/>
<path d="M855.659 371.562C855.659 377.234 853.804 382.033 850.096 385.96C846.388 389.668 841.698 391.522 836.026 391.522C830.355 391.522 825.665 389.668 821.956 385.96C818.248 382.033 816.394 377.234 816.394 371.562V236.426C816.394 230.754 818.248 226.064 821.956 222.356C825.665 218.429 830.355 216.466 836.026 216.466C841.698 216.466 846.388 218.429 850.096 222.356C853.804 226.064 855.659 230.754 855.659 236.426V371.562ZM835.699 195.198C828.282 195.198 823.047 193.998 819.993 191.598C816.939 189.199 815.412 184.945 815.412 178.837V172.62C815.412 166.513 817.048 162.259 820.32 159.859C823.592 157.46 828.828 156.26 836.026 156.26C843.661 156.26 849.005 157.46 852.059 159.859C855.113 162.259 856.64 166.513 856.64 172.62V178.837C856.64 185.163 855.004 189.526 851.732 191.926C848.678 194.107 843.334 195.198 835.699 195.198Z"/>
<path d="M986.976 213.194C993.52 213.194 998.974 215.048 1003.34 218.757C1007.92 222.465 1010.21 226.828 1010.21 231.845C1010.21 238.607 1008.46 243.733 1004.97 247.224C1001.48 250.496 997.338 252.132 992.539 252.132C989.266 252.132 985.558 251.368 981.413 249.841C980.759 249.623 979.232 249.187 976.833 248.533C974.651 247.878 972.252 247.551 969.634 247.551C963.962 247.551 958.509 249.296 953.274 252.786C948.038 256.276 943.676 261.621 940.185 268.819C936.913 275.8 935.277 284.198 935.277 294.014V371.562C935.277 377.234 933.423 382.033 929.715 385.96C926.006 389.668 921.316 391.522 915.645 391.522C909.973 391.522 905.283 389.668 901.575 385.96C897.867 382.033 896.012 377.234 896.012 371.562V236.426C896.012 230.754 897.867 226.064 901.575 222.356C905.283 218.429 909.973 216.466 915.645 216.466C921.316 216.466 926.006 218.429 929.715 222.356C933.423 226.064 935.277 230.754 935.277 236.426V240.68C940.294 231.736 947.493 224.974 956.873 220.393C966.253 215.594 976.287 213.194 986.976 213.194Z"/>
</mask>
<path d="M446.874 366C447.965 368.836 448.511 371.453 448.511 373.853C448.511 379.524 446.656 384.214 442.948 387.923C439.24 391.413 434.986 393.158 430.187 393.158C426.26 393.158 422.661 391.958 419.389 389.559C416.335 387.159 413.936 383.887 412.191 379.743L395.176 340.151H297.668L280.653 380.07C279.126 384.214 276.727 387.487 273.455 389.886C270.401 392.067 267.02 393.158 263.311 393.158C257.64 393.158 253.277 391.631 250.223 388.577C247.387 385.523 245.969 381.379 245.969 376.143C245.969 374.18 246.296 372.108 246.951 369.926L328.425 174.256C330.171 169.894 332.788 166.513 336.278 164.113C339.769 161.714 343.695 160.732 348.058 161.168C351.984 161.168 355.584 162.368 358.856 164.767C362.346 166.949 364.855 170.112 366.382 174.256L446.874 366ZM379.143 302.522L346.095 225.955L313.701 302.522H379.143Z" fill="#7C96F6"/>
<path d="M563.58 213.194C578.632 213.194 592.265 217.121 604.481 224.974C616.697 232.608 626.295 243.297 633.275 257.04C640.474 270.783 644.073 286.38 644.073 303.831C644.073 321.282 640.583 336.988 633.602 350.948C626.622 364.691 617.024 375.489 604.808 383.342C592.811 390.977 579.504 394.794 564.889 394.794C554.418 394.794 544.493 392.722 535.113 388.577C525.951 384.214 518.316 378.979 512.209 372.871V374.835C512.209 380.506 510.354 385.305 506.646 389.232C502.938 392.94 498.248 394.794 492.576 394.794C486.905 394.794 482.215 392.94 478.506 389.232C474.798 385.523 472.944 380.724 472.944 374.835V169.348C472.944 163.677 474.798 158.987 478.506 155.278C482.215 151.352 486.905 149.389 492.576 149.389C498.248 149.389 502.938 151.352 506.646 155.278C510.354 158.987 512.209 163.677 512.209 169.348V237.735C517.444 231.191 524.751 225.519 534.131 220.72C543.511 215.703 553.328 213.194 563.58 213.194ZM558.672 358.801C572.633 358.801 584.085 353.566 593.029 343.095C601.972 332.625 606.444 319.536 606.444 303.831C606.444 288.125 601.972 275.145 593.029 264.893C584.303 254.422 572.851 249.187 558.672 249.187C544.493 249.187 532.932 254.422 523.988 264.893C515.044 275.145 510.573 288.125 510.573 303.831C510.573 319.536 515.044 332.625 523.988 343.095C532.932 353.566 544.493 358.801 558.672 358.801Z" fill="#7C96F6"/>
<path d="M767.773 213.194C774.317 213.194 779.77 215.048 784.133 218.757C788.714 222.465 791.004 226.828 791.004 231.845C791.004 238.607 789.259 243.733 785.769 247.224C782.279 250.496 778.134 252.132 773.335 252.132C770.063 252.132 766.355 251.368 762.21 249.841C761.556 249.623 760.029 249.187 757.629 248.533C755.448 247.878 753.048 247.551 750.431 247.551C744.759 247.551 739.306 249.296 734.07 252.786C728.835 256.276 724.472 261.621 720.982 268.819C717.71 275.8 716.074 284.198 716.074 294.014V371.562C716.074 377.234 714.22 382.033 710.511 385.96C706.803 389.668 702.113 391.522 696.442 391.522C690.77 391.522 686.08 389.668 682.372 385.96C678.663 382.033 676.809 377.234 676.809 371.562V236.426C676.809 230.754 678.663 226.064 682.372 222.356C686.08 218.429 690.77 216.466 696.442 216.466C702.113 216.466 706.803 218.429 710.511 222.356C714.22 226.064 716.074 230.754 716.074 236.426V240.68C721.091 231.736 728.29 224.974 737.67 220.393C747.05 215.594 757.084 213.194 767.773 213.194Z" fill="#7C96F6"/>
<path d="M855.659 371.562C855.659 377.234 853.804 382.033 850.096 385.96C846.388 389.668 841.698 391.522 836.026 391.522C830.355 391.522 825.665 389.668 821.956 385.96C818.248 382.033 816.394 377.234 816.394 371.562V236.426C816.394 230.754 818.248 226.064 821.956 222.356C825.665 218.429 830.355 216.466 836.026 216.466C841.698 216.466 846.388 218.429 850.096 222.356C853.804 226.064 855.659 230.754 855.659 236.426V371.562ZM835.699 195.198C828.282 195.198 823.047 193.998 819.993 191.598C816.939 189.199 815.412 184.945 815.412 178.837V172.62C815.412 166.513 817.048 162.259 820.32 159.859C823.592 157.46 828.828 156.26 836.026 156.26C843.661 156.26 849.005 157.46 852.059 159.859C855.113 162.259 856.64 166.513 856.64 172.62V178.837C856.64 185.163 855.004 189.526 851.732 191.926C848.678 194.107 843.334 195.198 835.699 195.198Z" fill="#7C96F6"/>
<path d="M986.976 213.194C993.52 213.194 998.974 215.048 1003.34 218.757C1007.92 222.465 1010.21 226.828 1010.21 231.845C1010.21 238.607 1008.46 243.733 1004.97 247.224C1001.48 250.496 997.338 252.132 992.539 252.132C989.266 252.132 985.558 251.368 981.413 249.841C980.759 249.623 979.232 249.187 976.833 248.533C974.651 247.878 972.252 247.551 969.634 247.551C963.962 247.551 958.509 249.296 953.274 252.786C948.038 256.276 943.676 261.621 940.185 268.819C936.913 275.8 935.277 284.198 935.277 294.014V371.562C935.277 377.234 933.423 382.033 929.715 385.96C926.006 389.668 921.316 391.522 915.645 391.522C909.973 391.522 905.283 389.668 901.575 385.96C897.867 382.033 896.012 377.234 896.012 371.562V236.426C896.012 230.754 897.867 226.064 901.575 222.356C905.283 218.429 909.973 216.466 915.645 216.466C921.316 216.466 926.006 218.429 929.715 222.356C933.423 226.064 935.277 230.754 935.277 236.426V240.68C940.294 231.736 947.493 224.974 956.873 220.393C966.253 215.594 976.287 213.194 986.976 213.194Z" fill="#7C96F6"/>
<path d="M446.874 366C447.965 368.836 448.511 371.453 448.511 373.853C448.511 379.524 446.656 384.214 442.948 387.923C439.24 391.413 434.986 393.158 430.187 393.158C426.26 393.158 422.661 391.958 419.389 389.559C416.335 387.159 413.936 383.887 412.191 379.743L395.176 340.151H297.668L280.653 380.07C279.126 384.214 276.727 387.487 273.455 389.886C270.401 392.067 267.02 393.158 263.311 393.158C257.64 393.158 253.277 391.631 250.223 388.577C247.387 385.523 245.969 381.379 245.969 376.143C245.969 374.18 246.296 372.108 246.951 369.926L328.425 174.256C330.171 169.894 332.788 166.513 336.278 164.113C339.769 161.714 343.695 160.732 348.058 161.168C351.984 161.168 355.584 162.368 358.856 164.767C362.346 166.949 364.855 170.112 366.382 174.256L446.874 366ZM379.143 302.522L346.095 225.955L313.701 302.522H379.143Z" stroke="white" stroke-width="40" mask="url(#path-2-outside-1_1_57)"/>
<path d="M563.58 213.194C578.632 213.194 592.265 217.121 604.481 224.974C616.697 232.608 626.295 243.297 633.275 257.04C640.474 270.783 644.073 286.38 644.073 303.831C644.073 321.282 640.583 336.988 633.602 350.948C626.622 364.691 617.024 375.489 604.808 383.342C592.811 390.977 579.504 394.794 564.889 394.794C554.418 394.794 544.493 392.722 535.113 388.577C525.951 384.214 518.316 378.979 512.209 372.871V374.835C512.209 380.506 510.354 385.305 506.646 389.232C502.938 392.94 498.248 394.794 492.576 394.794C486.905 394.794 482.215 392.94 478.506 389.232C474.798 385.523 472.944 380.724 472.944 374.835V169.348C472.944 163.677 474.798 158.987 478.506 155.278C482.215 151.352 486.905 149.389 492.576 149.389C498.248 149.389 502.938 151.352 506.646 155.278C510.354 158.987 512.209 163.677 512.209 169.348V237.735C517.444 231.191 524.751 225.519 534.131 220.72C543.511 215.703 553.328 213.194 563.58 213.194ZM558.672 358.801C572.633 358.801 584.085 353.566 593.029 343.095C601.972 332.625 606.444 319.536 606.444 303.831C606.444 288.125 601.972 275.145 593.029 264.893C584.303 254.422 572.851 249.187 558.672 249.187C544.493 249.187 532.932 254.422 523.988 264.893C515.044 275.145 510.573 288.125 510.573 303.831C510.573 319.536 515.044 332.625 523.988 343.095C532.932 353.566 544.493 358.801 558.672 358.801Z" stroke="white" stroke-width="40" mask="url(#path-2-outside-1_1_57)"/>
<path d="M767.773 213.194C774.317 213.194 779.77 215.048 784.133 218.757C788.714 222.465 791.004 226.828 791.004 231.845C791.004 238.607 789.259 243.733 785.769 247.224C782.279 250.496 778.134 252.132 773.335 252.132C770.063 252.132 766.355 251.368 762.21 249.841C761.556 249.623 760.029 249.187 757.629 248.533C755.448 247.878 753.048 247.551 750.431 247.551C744.759 247.551 739.306 249.296 734.07 252.786C728.835 256.276 724.472 261.621 720.982 268.819C717.71 275.8 716.074 284.198 716.074 294.014V371.562C716.074 377.234 714.22 382.033 710.511 385.96C706.803 389.668 702.113 391.522 696.442 391.522C690.77 391.522 686.08 389.668 682.372 385.96C678.663 382.033 676.809 377.234 676.809 371.562V236.426C676.809 230.754 678.663 226.064 682.372 222.356C686.08 218.429 690.77 216.466 696.442 216.466C702.113 216.466 706.803 218.429 710.511 222.356C714.22 226.064 716.074 230.754 716.074 236.426V240.68C721.091 231.736 728.29 224.974 737.67 220.393C747.05 215.594 757.084 213.194 767.773 213.194Z" stroke="white" stroke-width="40" mask="url(#path-2-outside-1_1_57)"/>
<path d="M855.659 371.562C855.659 377.234 853.804 382.033 850.096 385.96C846.388 389.668 841.698 391.522 836.026 391.522C830.355 391.522 825.665 389.668 821.956 385.96C818.248 382.033 816.394 377.234 816.394 371.562V236.426C816.394 230.754 818.248 226.064 821.956 222.356C825.665 218.429 830.355 216.466 836.026 216.466C841.698 216.466 846.388 218.429 850.096 222.356C853.804 226.064 855.659 230.754 855.659 236.426V371.562ZM835.699 195.198C828.282 195.198 823.047 193.998 819.993 191.598C816.939 189.199 815.412 184.945 815.412 178.837V172.62C815.412 166.513 817.048 162.259 820.32 159.859C823.592 157.46 828.828 156.26 836.026 156.26C843.661 156.26 849.005 157.46 852.059 159.859C855.113 162.259 856.64 166.513 856.64 172.62V178.837C856.64 185.163 855.004 189.526 851.732 191.926C848.678 194.107 843.334 195.198 835.699 195.198Z" stroke="white" stroke-width="40" mask="url(#path-2-outside-1_1_57)"/>
<path d="M986.976 213.194C993.52 213.194 998.974 215.048 1003.34 218.757C1007.92 222.465 1010.21 226.828 1010.21 231.845C1010.21 238.607 1008.46 243.733 1004.97 247.224C1001.48 250.496 997.338 252.132 992.539 252.132C989.266 252.132 985.558 251.368 981.413 249.841C980.759 249.623 979.232 249.187 976.833 248.533C974.651 247.878 972.252 247.551 969.634 247.551C963.962 247.551 958.509 249.296 953.274 252.786C948.038 256.276 943.676 261.621 940.185 268.819C936.913 275.8 935.277 284.198 935.277 294.014V371.562C935.277 377.234 933.423 382.033 929.715 385.96C926.006 389.668 921.316 391.522 915.645 391.522C909.973 391.522 905.283 389.668 901.575 385.96C897.867 382.033 896.012 377.234 896.012 371.562V236.426C896.012 230.754 897.867 226.064 901.575 222.356C905.283 218.429 909.973 216.466 915.645 216.466C921.316 216.466 926.006 218.429 929.715 222.356C933.423 226.064 935.277 230.754 935.277 236.426V240.68C940.294 231.736 947.493 224.974 956.873 220.393C966.253 215.594 976.287 213.194 986.976 213.194Z" stroke="white" stroke-width="40" mask="url(#path-2-outside-1_1_57)"/>
<path d="M993.907 393.126L994.127 393.362L994.363 393.582C1000.24 399.092 1007.9 401.195 1015.93 401.195H1020.18C1028.16 401.195 1035.9 399.109 1041.65 393.358C1047.5 387.503 1049.81 379.758 1049.81 371.562V366C1049.81 357.947 1047.57 350.227 1041.65 344.529C1035.95 338.606 1028.23 336.367 1020.18 336.367H1015.93C1007.73 336.367 999.985 338.677 994.131 344.532L1001.14 351.541L994.131 344.532C988.38 350.283 986.294 358.019 986.294 366V371.562C986.294 379.589 988.397 387.249 993.907 393.126ZM1096.97 398.83L1097.11 398.763L1097.24 398.691C1101.34 396.484 1104.82 393.48 1107.63 389.765L1138.08 350.981L1169.39 389.861C1175.36 397.569 1183.45 402.176 1193.28 402.176C1201.21 402.176 1208.17 398.971 1213.9 393.546C1219.93 387.831 1223.24 380.558 1223.24 372.217C1223.24 365.491 1220.99 359.361 1216.76 354.152C1216.76 354.145 1216.75 354.138 1216.75 354.131L1174.76 301.933L1214.74 253.254C1214.74 253.253 1214.74 253.253 1214.74 253.252C1219.27 247.756 1221.6 241.256 1221.6 234.135C1221.6 226.576 1218.45 220.069 1213.11 214.953C1207.7 209.321 1200.76 206.466 1192.95 206.466C1182.95 206.466 1174.88 211.361 1169.17 219.399L1139.7 258.441L1107.51 218.399C1107.5 218.396 1107.5 218.392 1107.5 218.388C1101.46 210.851 1093.37 206.466 1083.67 206.466C1075.63 206.466 1068.54 209.582 1062.72 215.092C1056.78 220.709 1053.71 227.927 1053.71 236.099C1053.71 242.825 1055.96 248.954 1060.18 254.163L1102.2 306.397L1061.88 355.71C1057.4 361.102 1054.69 367.433 1054.69 374.507C1054.69 382.587 1058.52 389.257 1064.46 394.263C1070.07 398.981 1076.64 401.849 1083.99 401.849C1088.53 401.849 1092.91 400.864 1096.97 398.83ZM1259.46 459.611L1259.54 459.643L1259.62 459.675C1265.42 462.049 1272.48 463.727 1280.52 464.883C1288.84 466.263 1296.99 466.964 1304.96 466.964C1332.19 466.964 1355.1 459.955 1372.62 444.951C1390.95 429.483 1399.05 405.493 1399.05 375.489V236.426C1399.05 228.388 1396.34 221.117 1390.66 215.386C1384.97 209.419 1377.64 206.466 1369.42 206.466C1361.2 206.466 1353.86 209.419 1348.18 215.386C1342.5 221.117 1339.79 228.388 1339.79 236.426V320.191C1339.79 330.975 1337.06 337.803 1332.99 342.154L1332.99 342.162C1329.25 346.168 1323.48 348.801 1314.12 348.801C1304.31 348.801 1298.36 346.352 1294.69 342.898C1291.49 339.479 1288.78 332.714 1288.78 320.191V236.426C1288.78 228.388 1286.07 221.117 1280.39 215.386C1274.7 209.419 1267.37 206.466 1259.15 206.466C1250.93 206.466 1243.59 209.419 1237.91 215.386C1232.23 221.117 1229.52 228.388 1229.52 236.426V331.97C1229.52 345.523 1232.19 357.996 1237.77 369.163L1237.79 369.205L1237.81 369.246C1243.41 380.195 1251.4 388.985 1261.7 395.421L1261.78 395.469L1261.86 395.516C1272.31 401.788 1284.16 404.794 1297.1 404.794C1312.22 404.794 1325.66 402.168 1336.98 396.569C1335.69 399.633 1334.09 401.814 1332.37 403.329L1332.25 403.432L1332.14 403.539C1327.61 407.797 1319.29 410.971 1304.96 410.971C1301.18 410.971 1297.52 410.522 1293.97 409.633L1293.79 409.588L1293.6 409.549C1290.02 408.795 1286.54 407.762 1283.15 406.45C1279.49 404.944 1276.96 403.89 1275.52 403.272L1275.14 403.108L1274.74 402.977C1271.71 401.964 1268.56 401.482 1265.37 401.482C1259.33 401.482 1253.8 403.484 1248.98 407.017L1248.68 407.241L1248.39 407.488C1243.56 411.629 1240.5 417.148 1238.78 423.311C1237.94 425.881 1237.37 428.632 1237.37 431.441C1237.37 445.231 1246.99 454.265 1259.46 459.611ZM1417.52 392.903L1417.72 393.137L1417.94 393.358C1423.34 398.758 1430.16 401.522 1437.78 401.522H1543.14C1550.85 401.522 1557.81 398.846 1563.3 393.358C1568.7 387.958 1571.46 381.146 1571.46 373.526C1571.46 365.87 1568.81 358.919 1563.18 353.581C1557.71 348.169 1550.79 345.529 1543.14 345.529H1495.1L1561.14 259.946C1561.15 259.934 1561.16 259.923 1561.17 259.911C1563.86 256.477 1566.26 252.713 1567.44 248.788L1567.48 248.668L1567.51 248.546C1568.46 245.068 1568.84 241.306 1568.84 237.407C1568.84 229.885 1566.14 223.134 1560.68 217.901C1555.54 212.539 1548.95 209.738 1541.5 209.738H1440.72C1433.07 209.738 1426.15 212.377 1420.68 217.789C1415.14 223.038 1412.4 229.831 1412.4 237.407C1412.4 245.116 1415.07 252.079 1420.56 257.567C1426.05 263.055 1433.01 265.731 1440.72 265.731H1483.83L1418.41 350.396L1418.33 350.496L1418.26 350.597C1415.54 354.311 1413.29 358.152 1411.97 362.057C1410.6 365.894 1410.11 370.163 1410.11 374.507C1410.11 381.542 1412.96 387.739 1417.52 392.903Z" fill="#030679" stroke="white" stroke-width="20"/>
</svg>
